<?xml version="1.0" encoding="UTF-8" standalone="no"?>
<!-- Created with Inkscape (http://www.inkscape.org/) -->

<svg
   width="7680"
   height="4320"
   viewBox="0 0 2032 1143"
   version="1.1"
   id="svg5"
   inkscape:version="1.2.1 (9c6d41e410, 2022-07-14)"
   sodipodi:docname="nothing-6.svg"
   xml:space="preserve"
   inkscape:export-filename="nothing-6.png"
   inkscape:export-xdpi="95.987503"
   inkscape:export-ydpi="95.987503"
   xmlns:inkscape="http://www.inkscape.org/namespaces/inkscape"
   xmlns:sodipodi="http://sodipodi.sourceforge.net/DTD/sodipodi-0.dtd"
   xmlns="http://www.w3.org/2000/svg"
   xmlns:svg="http://www.w3.org/2000/svg"><sodipodi:namedview
     id="namedview7"
     pagecolor="#ffffff"
     bordercolor="#000000"
     borderopacity="0.25"
     inkscape:showpageshadow="2"
     inkscape:pageopacity="0.0"
     inkscape:pagecheckerboard="0"
     inkscape:deskcolor="#d1d1d1"
     inkscape:document-units="mm"
     showgrid="false"
     inkscape:zoom="0.18838693"
     inkscape:cx="3588.3594"
     inkscape:cy="2160.4471"
     inkscape:window-width="1920"
     inkscape:window-height="1163"
     inkscape:window-x="0"
     inkscape:window-y="0"
     inkscape:window-maximized="1"
     inkscape:current-layer="layer1"
     showguides="true"><sodipodi:guide
       position="1060.0372,574.14583"
       orientation="0,1"
       id="guide3672"
       inkscape:locked="false"
       inkscape:label=""
       inkscape:color="rgb(0,134,229)" /></sodipodi:namedview><defs
     id="defs2"><rect
       x="1392.9298"
       y="1544.8066"
       width="5288.7857"
       height="485.12703"
       id="rect824" /><clipPath
       clipPathUnits="userSpaceOnUse"
       id="clipPath2488"><path
         d="M -1.9968479e-7,2134.0001 H 805.99997 v 1067 H -1.9968479e-7 Z"
         clip-rule="evenodd"
         id="path2490"
         style="stroke-width:0.348541" /></clipPath></defs><g
     inkscape:label="Layer 1"
     inkscape:groupmode="layer"
     id="layer1"><g
       id="g8682"><path
         id="rect6990"
         style="stroke:#000000;stroke-width:0.264583"
         d="M 0,0 H 2032 V 1143 H 0 Z" /><g
         aria-label="0x0000000000000000000000000000000000000000"
         id="text830"
         style="font-size:55.5556px;line-height:0;font-family:'Noto Sans Mono';-inkscape-font-specification:'Noto Sans Mono';fill:#ffffff;stroke-width:4.99999"><path
           d="m 292.63788,531.54694 q -4.23177,0 -6.37479,4.17752 -2.11588,4.1504 -2.11588,12.50544 0,8.32791 2.11588,12.50543 2.14302,4.1504 6.37479,4.1504 4.2589,0 6.37479,-4.1504 2.14301,-4.17752 2.14301,-12.50543 0,-8.35504 -2.14301,-12.50544 -2.11589,-4.17752 -6.37479,-4.17752 z m 0,-4.34028 q 6.80882,0 10.38955,5.39822 3.60786,5.3711 3.60786,15.62502 0,10.22678 -3.60786,15.62501 -3.58073,5.3711 -10.38955,5.3711 -6.80881,0 -10.41667,-5.3711 -3.58073,-5.39823 -3.58073,-15.62501 0,-10.25392 3.58073,-15.62502 3.60786,-5.39822 10.41667,-5.39822 z"
           style="font-family:sans-serif;-inkscape-font-specification:sans-serif;stroke-width:5"
           id="path8552" /><path
           d="m 340.815,538.05736 -10.98633,14.78409 11.55599,15.59788 h -5.8865 l -8.84332,-11.93577 -8.84333,11.93577 h -5.8865 l 11.80014,-15.89628 -10.79645,-14.48569 h 5.8865 l 8.05665,10.82358 8.05665,-10.82358 z"
           style="font-family:sans-serif;-inkscape-font-specification:sans-serif;stroke-width:5"
           id="path8554" /><path
           d="m 360.86168,531.54694 q -4.23178,0 -6.37479,4.17752 -2.11589,4.1504 -2.11589,12.50544 0,8.32791 2.11589,12.50543 2.14301,4.1504 6.37479,4.1504 4.2589,0 6.37478,-4.1504 2.14302,-4.17752 2.14302,-12.50543 0,-8.35504 -2.14302,-12.50544 -2.11588,-4.17752 -6.37478,-4.17752 z m 0,-4.34028 q 6.80881,0 10.38954,5.39822 3.60786,5.3711 3.60786,15.62502 0,10.22678 -3.60786,15.62501 -3.58073,5.3711 -10.38954,5.3711 -6.80882,0 -10.41668,-5.3711 -3.58073,-5.39823 -3.58073,-15.62501 0,-10.25392 3.58073,-15.62502 3.60786,-5.39822 10.41668,-5.39822 z"
           style="font-family:sans-serif;-inkscape-font-specification:sans-serif;stroke-width:5"
           id="path8556" /><path
           d="m 396.20784,531.54694 q -4.23177,0 -6.37478,4.17752 -2.11589,4.1504 -2.11589,12.50544 0,8.32791 2.11589,12.50543 2.14301,4.1504 6.37478,4.1504 4.2589,0 6.37479,-4.1504 2.14302,-4.17752 2.14302,-12.50543 0,-8.35504 -2.14302,-12.50544 -2.11589,-4.17752 -6.37479,-4.17752 z m 0,-4.34028 q 6.80882,0 10.38955,5.39822 3.60786,5.3711 3.60786,15.62502 0,10.22678 -3.60786,15.62501 -3.58073,5.3711 -10.38955,5.3711 -6.80881,0 -10.41667,-5.3711 -3.58073,-5.39823 -3.58073,-15.62501 0,-10.25392 3.58073,-15.62502 3.60786,-5.39822 10.41667,-5.39822 z"
           style="font-family:sans-serif;-inkscape-font-specification:sans-serif;stroke-width:5"
           id="path8558" /><path
           d="m 431.554,531.54694 q -4.23177,0 -6.37478,4.17752 -2.11589,4.1504 -2.11589,12.50544 0,8.32791 2.11589,12.50543 2.14301,4.1504 6.37478,4.1504 4.25891,0 6.37479,-4.1504 2.14302,-4.17752 2.14302,-12.50543 0,-8.35504 -2.14302,-12.50544 -2.11588,-4.17752 -6.37479,-4.17752 z m 0,-4.34028 q 6.80882,0 10.38955,5.39822 3.60786,5.3711 3.60786,15.62502 0,10.22678 -3.60786,15.62501 -3.58073,5.3711 -10.38955,5.3711 -6.80881,0 -10.41667,-5.3711 -3.58073,-5.39823 -3.58073,-15.62501 0,-10.25392 3.58073,-15.62502 3.60786,-5.39822 10.41667,-5.39822 z"
           style="font-family:sans-serif;-inkscape-font-specification:sans-serif;stroke-width:5"
           id="path8560" /><path
           d="m 466.90017,531.54694 q -4.23178,0 -6.37479,4.17752 -2.11589,4.1504 -2.11589,12.50544 0,8.32791 2.11589,12.50543 2.14301,4.1504 6.37479,4.1504 4.2589,0 6.37478,-4.1504 2.14302,-4.17752 2.14302,-12.50543 0,-8.35504 -2.14302,-12.50544 -2.11588,-4.17752 -6.37478,-4.17752 z m 0,-4.34028 q 6.80881,0 10.38954,5.39822 3.60786,5.3711 3.60786,15.62502 0,10.22678 -3.60786,15.62501 -3.58073,5.3711 -10.38954,5.3711 -6.80882,0 -10.41668,-5.3711 -3.58073,-5.39823 -3.58073,-15.62501 0,-10.25392 3.58073,-15.62502 3.60786,-5.39822 10.41668,-5.39822 z"
           style="font-family:sans-serif;-inkscape-font-specification:sans-serif;stroke-width:5"
           id="path8562" /><path
           d="m 502.24634,531.54694 q -4.23177,0 -6.37479,4.17752 -2.11588,4.1504 -2.11588,12.50544 0,8.32791 2.11588,12.50543 2.14302,4.1504 6.37479,4.1504 4.2589,0 6.37479,-4.1504 2.14301,-4.17752 2.14301,-12.50543 0,-8.35504 -2.14301,-12.50544 -2.11589,-4.17752 -6.37479,-4.17752 z m 0,-4.34028 q 6.80882,0 10.38955,5.39822 3.60786,5.3711 3.60786,15.62502 0,10.22678 -3.60786,15.62501 -3.58073,5.3711 -10.38955,5.3711 -6.80881,0 -10.41667,-5.3711 -3.58074,-5.39823 -3.58074,-15.62501 0,-10.25392 3.58074,-15.62502 3.60786,-5.39822 10.41667,-5.39822 z"
           style="font-family:sans-serif;-inkscape-font-specification:sans-serif;stroke-width:5"
           id="path8564" /><path
           d="m 537.5925,531.54694 q -4.23177,0 -6.37479,4.17752 -2.11588,4.1504 -2.11588,12.50544 0,8.32791 2.11588,12.50543 2.14302,4.1504 6.37479,4.1504 4.2589,0 6.37479,-4.1504 2.14301,-4.17752 2.14301,-12.50543 0,-8.35504 -2.14301,-12.50544 -2.11589,-4.17752 -6.37479,-4.17752 z m 0,-4.34028 q 6.80882,0 10.38955,5.39822 3.60786,5.3711 3.60786,15.62502 0,10.22678 -3.60786,15.62501 -3.58073,5.3711 -10.38955,5.3711 -6.80881,0 -10.41667,-5.3711 -3.58073,-5.39823 -3.58073,-15.62501 0,-10.25392 3.58073,-15.62502 3.60786,-5.39822 10.41667,-5.39822 z"
           style="font-family:sans-serif;-inkscape-font-specification:sans-serif;stroke-width:5"
           id="path8566" /><path
           d="m 572.93866,531.54694 q -4.23177,0 -6.37478,4.17752 -2.11589,4.1504 -2.11589,12.50544 0,8.32791 2.11589,12.50543 2.14301,4.1504 6.37478,4.1504 4.2589,0 6.37479,-4.1504 2.14302,-4.17752 2.14302,-12.50543 0,-8.35504 -2.14302,-12.50544 -2.11589,-4.17752 -6.37479,-4.17752 z m 0,-4.34028 q 6.80882,0 10.38955,5.39822 3.60786,5.3711 3.60786,15.62502 0,10.22678 -3.60786,15.62501 -3.58073,5.3711 -10.38955,5.3711 -6.80881,0 -10.41667,-5.3711 -3.58073,-5.39823 -3.58073,-15.62501 0,-10.25392 3.58073,-15.62502 3.60786,-5.39822 10.41667,-5.39822 z"
           style="font-family:sans-serif;-inkscape-font-specification:sans-serif;stroke-width:5"
           id="path8568" /><path
           d="m 608.28482,531.54694 q -4.23177,0 -6.37478,4.17752 -2.11589,4.1504 -2.11589,12.50544 0,8.32791 2.11589,12.50543 2.14301,4.1504 6.37478,4.1504 4.25891,0 6.37479,-4.1504 2.14302,-4.17752 2.14302,-12.50543 0,-8.35504 -2.14302,-12.50544 -2.11588,-4.17752 -6.37479,-4.17752 z m 0,-4.34028 q 6.80882,0 10.38955,5.39822 3.60786,5.3711 3.60786,15.62502 0,10.22678 -3.60786,15.62501 -3.58073,5.3711 -10.38955,5.3711 -6.80881,0 -10.41667,-5.3711 -3.58073,-5.39823 -3.58073,-15.62501 0,-10.25392 3.58073,-15.62502 3.60786,-5.39822 10.41667,-5.39822 z"
           style="font-family:sans-serif;-inkscape-font-specification:sans-serif;stroke-width:5"
           id="path8570" /><path
           d="m 643.63099,531.54694 q -4.23178,0 -6.37479,4.17752 -2.11589,4.1504 -2.11589,12.50544 0,8.32791 2.11589,12.50543 2.14301,4.1504 6.37479,4.1504 4.2589,0 6.37478,-4.1504 2.14302,-4.17752 2.14302,-12.50543 0,-8.35504 -2.14302,-12.50544 -2.11588,-4.17752 -6.37478,-4.17752 z m 0,-4.34028 q 6.80881,0 10.38954,5.39822 3.60786,5.3711 3.60786,15.62502 0,10.22678 -3.60786,15.62501 -3.58073,5.3711 -10.38954,5.3711 -6.80882,0 -10.41668,-5.3711 -3.58073,-5.39823 -3.58073,-15.62501 0,-10.25392 3.58073,-15.62502 3.60786,-5.39822 10.41668,-5.39822 z"
           style="font-family:sans-serif;-inkscape-font-specification:sans-serif;stroke-width:5"
           id="path8572" /><path
           d="m 678.97715,531.54694 q -4.23178,0 -6.37479,4.17752 -2.11589,4.1504 -2.11589,12.50544 0,8.32791 2.11589,12.50543 2.14301,4.1504 6.37479,4.1504 4.2589,0 6.37478,-4.1504 2.14302,-4.17752 2.14302,-12.50543 0,-8.35504 -2.14302,-12.50544 -2.11588,-4.17752 -6.37478,-4.17752 z m 0,-4.34028 q 6.80881,0 10.38954,5.39822 3.60786,5.3711 3.60786,15.62502 0,10.22678 -3.60786,15.62501 -3.58073,5.3711 -10.38954,5.3711 -6.80882,0 -10.41668,-5.3711 -3.58073,-5.39823 -3.58073,-15.62501 0,-10.25392 3.58073,-15.62502 3.60786,-5.39822 10.41668,-5.39822 z"
           style="font-family:sans-serif;-inkscape-font-specification:sans-serif;stroke-width:5"
           id="path8574" /><path
           d="m 714.32331,531.54694 q -4.23178,0 -6.37479,4.17752 -2.11589,4.1504 -2.11589,12.50544 0,8.32791 2.11589,12.50543 2.14301,4.1504 6.37479,4.1504 4.2589,0 6.37478,-4.1504 2.14302,-4.17752 2.14302,-12.50543 0,-8.35504 -2.14302,-12.50544 -2.11588,-4.17752 -6.37478,-4.17752 z m 0,-4.34028 q 6.80881,0 10.38955,5.39822 3.60785,5.3711 3.60785,15.62502 0,10.22678 -3.60785,15.62501 -3.58074,5.3711 -10.38955,5.3711 -6.80882,0 -10.41668,-5.3711 -3.58073,-5.39823 -3.58073,-15.62501 0,-10.25392 3.58073,-15.62502 3.60786,-5.39822 10.41668,-5.39822 z"
           style="font-family:sans-serif;-inkscape-font-specification:sans-serif;stroke-width:5"
           id="path8576" /><path
           d="m 749.6695,531.54694 q -4.23178,0 -6.37479,4.17752 -2.11589,4.1504 -2.11589,12.50544 0,8.32791 2.11589,12.50543 2.14301,4.1504 6.37479,4.1504 4.2589,0 6.37479,-4.1504 2.14301,-4.17752 2.14301,-12.50543 0,-8.35504 -2.14301,-12.50544 -2.11589,-4.17752 -6.37479,-4.17752 z m 0,-4.34028 q 6.80881,0 10.38955,5.39822 3.60786,5.3711 3.60786,15.62502 0,10.22678 -3.60786,15.62501 -3.58074,5.3711 -10.38955,5.3711 -6.80882,0 -10.41668,-5.3711 -3.58073,-5.39823 -3.58073,-15.62501 0,-10.25392 3.58073,-15.62502 3.60786,-5.39822 10.41668,-5.39822 z"
           style="font-family:sans-serif;-inkscape-font-specification:sans-serif;stroke-width:5"
           id="path8578" /><path
           d="m 785.01566,531.54694 q -4.23177,0 -6.37479,4.17752 -2.11589,4.1504 -2.11589,12.50544 0,8.32791 2.11589,12.50543 2.14302,4.1504 6.37479,4.1504 4.2589,0 6.37479,-4.1504 2.14301,-4.17752 2.14301,-12.50543 0,-8.35504 -2.14301,-12.50544 -2.11589,-4.17752 -6.37479,-4.17752 z m 0,-4.34028 q 6.80882,0 10.38955,5.39822 3.60786,5.3711 3.60786,15.62502 0,10.22678 -3.60786,15.62501 -3.58073,5.3711 -10.38955,5.3711 -6.80882,0 -10.41668,-5.3711 -3.58073,-5.39823 -3.58073,-15.62501 0,-10.25392 3.58073,-15.62502 3.60786,-5.39822 10.41668,-5.39822 z"
           style="font-family:sans-serif;-inkscape-font-specification:sans-serif;stroke-width:5"
           id="path8580" /><path
           d="m 820.36182,531.54694 q -4.23177,0 -6.37479,4.17752 -2.11588,4.1504 -2.11588,12.50544 0,8.32791 2.11588,12.50543 2.14302,4.1504 6.37479,4.1504 4.2589,0 6.37479,-4.1504 2.14301,-4.17752 2.14301,-12.50543 0,-8.35504 -2.14301,-12.50544 -2.11589,-4.17752 -6.37479,-4.17752 z m 0,-4.34028 q 6.80882,0 10.38955,5.39822 3.60786,5.3711 3.60786,15.62502 0,10.22678 -3.60786,15.62501 -3.58073,5.3711 -10.38955,5.3711 -6.80882,0 -10.41667,-5.3711 -3.58074,-5.39823 -3.58074,-15.62501 0,-10.25392 3.58074,-15.62502 3.60785,-5.39822 10.41667,-5.39822 z"
           style="font-family:sans-serif;-inkscape-font-specification:sans-serif;stroke-width:5"
           id="path8582" /><path
           d="m 855.70795,531.54694 q -4.23177,0 -6.37479,4.17752 -2.11588,4.1504 -2.11588,12.50544 0,8.32791 2.11588,12.50543 2.14302,4.1504 6.37479,4.1504 4.2589,0 6.37479,-4.1504 2.14301,-4.17752 2.14301,-12.50543 0,-8.35504 -2.14301,-12.50544 -2.11589,-4.17752 -6.37479,-4.17752 z m 0,-4.34028 q 6.80882,0 10.38955,5.39822 3.60786,5.3711 3.60786,15.62502 0,10.22678 -3.60786,15.62501 -3.58073,5.3711 -10.38955,5.3711 -6.80882,0 -10.41667,-5.3711 -3.58074,-5.39823 -3.58074,-15.62501 0,-10.25392 3.58074,-15.62502 3.60785,-5.39822 10.41667,-5.39822 z"
           style="font-family:sans-serif;-inkscape-font-specification:sans-serif;stroke-width:5"
           id="path8584" /><path
           d="m 891.05414,531.54694 q -4.23177,0 -6.37479,4.17752 -2.11588,4.1504 -2.11588,12.50544 0,8.32791 2.11588,12.50543 2.14302,4.1504 6.37479,4.1504 4.2589,0 6.37479,-4.1504 2.14301,-4.17752 2.14301,-12.50543 0,-8.35504 -2.14301,-12.50544 -2.11589,-4.17752 -6.37479,-4.17752 z m 0,-4.34028 q 6.80882,0 10.38955,5.39822 3.60786,5.3711 3.60786,15.62502 0,10.22678 -3.60786,15.62501 -3.58073,5.3711 -10.38955,5.3711 -6.80881,0 -10.41667,-5.3711 -3.58073,-5.39823 -3.58073,-15.62501 0,-10.25392 3.58073,-15.62502 3.60786,-5.39822 10.41667,-5.39822 z"
           style="font-family:sans-serif;-inkscape-font-specification:sans-serif;stroke-width:5"
           id="path8586" /><path
           d="m 926.40033,531.54694 q -4.23177,0 -6.37478,4.17752 -2.11589,4.1504 -2.11589,12.50544 0,8.32791 2.11589,12.50543 2.14301,4.1504 6.37478,4.1504 4.2589,0 6.37479,-4.1504 2.14302,-4.17752 2.14302,-12.50543 0,-8.35504 -2.14302,-12.50544 -2.11589,-4.17752 -6.37479,-4.17752 z m 0,-4.34028 q 6.80882,0 10.38955,5.39822 3.60786,5.3711 3.60786,15.62502 0,10.22678 -3.60786,15.62501 -3.58073,5.3711 -10.38955,5.3711 -6.80881,0 -10.41667,-5.3711 -3.58073,-5.39823 -3.58073,-15.62501 0,-10.25392 3.58073,-15.62502 3.60786,-5.39822 10.41667,-5.39822 z"
           style="font-family:sans-serif;-inkscape-font-specification:sans-serif;stroke-width:5"
           id="path8588" /><path
           d="m 961.74646,531.54694 q -4.23177,0 -6.37478,4.17752 -2.11589,4.1504 -2.11589,12.50544 0,8.32791 2.11589,12.50543 2.14301,4.1504 6.37478,4.1504 4.2589,0 6.37479,-4.1504 2.14302,-4.17752 2.14302,-12.50543 0,-8.35504 -2.14302,-12.50544 -2.11589,-4.17752 -6.37479,-4.17752 z m 0,-4.34028 q 6.80882,0 10.38955,5.39822 3.60786,5.3711 3.60786,15.62502 0,10.22678 -3.60786,15.62501 -3.58073,5.3711 -10.38955,5.3711 -6.80881,0 -10.41667,-5.3711 -3.58073,-5.39823 -3.58073,-15.62501 0,-10.25392 3.58073,-15.62502 3.60786,-5.39822 10.41667,-5.39822 z"
           style="font-family:sans-serif;-inkscape-font-specification:sans-serif;stroke-width:5"
           id="path8590" /><path
           d="m 997.09266,531.54694 q -4.23178,0 -6.37479,4.17752 -2.11589,4.1504 -2.11589,12.50544 0,8.32791 2.11589,12.50543 2.14301,4.1504 6.37479,4.1504 4.25894,0 6.37474,-4.1504 2.1431,-4.17752 2.1431,-12.50543 0,-8.35504 -2.1431,-12.50544 -2.1158,-4.17752 -6.37474,-4.17752 z m 0,-4.34028 q 6.80884,0 10.38954,5.39822 3.6079,5.3711 3.6079,15.62502 0,10.22678 -3.6079,15.62501 -3.5807,5.3711 -10.38954,5.3711 -6.80882,0 -10.41668,-5.3711 -3.58073,-5.39823 -3.58073,-15.62501 0,-10.25392 3.58073,-15.62502 3.60786,-5.39822 10.41668,-5.39822 z"
           style="font-family:sans-serif;-inkscape-font-specification:sans-serif;stroke-width:5"
           id="path8592" /><path
           d="m 1032.4388,531.54694 q -4.2318,0 -6.3748,4.17752 -2.1159,4.1504 -2.1159,12.50544 0,8.32791 2.1159,12.50543 2.143,4.1504 6.3748,4.1504 4.2589,0 6.3748,-4.1504 2.143,-4.17752 2.143,-12.50543 0,-8.35504 -2.143,-12.50544 -2.1159,-4.17752 -6.3748,-4.17752 z m 0,-4.34028 q 6.8088,0 10.3895,5.39822 3.6079,5.3711 3.6079,15.62502 0,10.22678 -3.6079,15.62501 -3.5807,5.3711 -10.3895,5.3711 -6.8088,0 -10.4167,-5.3711 -3.5807,-5.39823 -3.5807,-15.62501 0,-10.25392 3.5807,-15.62502 3.6079,-5.39822 10.4167,-5.39822 z"
           style="font-family:sans-serif;-inkscape-font-specification:sans-serif;stroke-width:5"
           id="path8594" /><path
           d="m 1067.785,531.54694 q -4.2318,0 -6.3748,4.17752 -2.1159,4.1504 -2.1159,12.50544 0,8.32791 2.1159,12.50543 2.143,4.1504 6.3748,4.1504 4.2589,0 6.3748,-4.1504 2.143,-4.17752 2.143,-12.50543 0,-8.35504 -2.143,-12.50544 -2.1159,-4.17752 -6.3748,-4.17752 z m 0,-4.34028 q 6.8088,0 10.3895,5.39822 3.6079,5.3711 3.6079,15.62502 0,10.22678 -3.6079,15.62501 -3.5807,5.3711 -10.3895,5.3711 -6.8088,0 -10.4167,-5.3711 -3.5807,-5.39823 -3.5807,-15.62501 0,-10.25392 3.5807,-15.62502 3.6079,-5.39822 10.4167,-5.39822 z"
           style="font-family:sans-serif;-inkscape-font-specification:sans-serif;stroke-width:5"
           id="path8596" /><path
           d="m 1103.1311,531.54694 q -4.2318,0 -6.3748,4.17752 -2.1159,4.1504 -2.1159,12.50544 0,8.32791 2.1159,12.50543 2.143,4.1504 6.3748,4.1504 4.2589,0 6.3748,-4.1504 2.143,-4.17752 2.143,-12.50543 0,-8.35504 -2.143,-12.50544 -2.1159,-4.17752 -6.3748,-4.17752 z m 0,-4.34028 q 6.8088,0 10.3896,5.39822 3.6078,5.3711 3.6078,15.62502 0,10.22678 -3.6078,15.62501 -3.5808,5.3711 -10.3896,5.3711 -6.8088,0 -10.4167,-5.3711 -3.5807,-5.39823 -3.5807,-15.62501 0,-10.25392 3.5807,-15.62502 3.6079,-5.39822 10.4167,-5.39822 z"
           style="font-family:sans-serif;-inkscape-font-specification:sans-serif;stroke-width:5"
           id="path8598" /><path
           d="m 1138.4773,531.54694 q -4.2318,0 -6.3748,4.17752 -2.1159,4.1504 -2.1159,12.50544 0,8.32791 2.1159,12.50543 2.143,4.1504 6.3748,4.1504 4.2589,0 6.3748,-4.1504 2.143,-4.17752 2.143,-12.50543 0,-8.35504 -2.143,-12.50544 -2.1159,-4.17752 -6.3748,-4.17752 z m 0,-4.34028 q 6.8088,0 10.3895,5.39822 3.6079,5.3711 3.6079,15.62502 0,10.22678 -3.6079,15.62501 -3.5807,5.3711 -10.3895,5.3711 -6.8088,0 -10.4167,-5.3711 -3.5807,-5.39823 -3.5807,-15.62501 0,-10.25392 3.5807,-15.62502 3.6079,-5.39822 10.4167,-5.39822 z"
           style="font-family:sans-serif;-inkscape-font-specification:sans-serif;stroke-width:5"
           id="path8600" /><path
           d="m 1173.8235,531.54694 q -4.2318,0 -6.3748,4.17752 -2.1159,4.1504 -2.1159,12.50544 0,8.32791 2.1159,12.50543 2.143,4.1504 6.3748,4.1504 4.2589,0 6.3748,-4.1504 2.143,-4.17752 2.143,-12.50543 0,-8.35504 -2.143,-12.50544 -2.1159,-4.17752 -6.3748,-4.17752 z m 0,-4.34028 q 6.8088,0 10.3895,5.39822 3.6079,5.3711 3.6079,15.62502 0,10.22678 -3.6079,15.62501 -3.5807,5.3711 -10.3895,5.3711 -6.8088,0 -10.4167,-5.3711 -3.5807,-5.39823 -3.5807,-15.62501 0,-10.25392 3.5807,-15.62502 3.6079,-5.39822 10.4167,-5.39822 z"
           style="font-family:sans-serif;-inkscape-font-specification:sans-serif;stroke-width:5"
           id="path8602" /><path
           d="m 1209.1696,531.54694 q -4.2318,0 -6.3748,4.17752 -2.1159,4.1504 -2.1159,12.50544 0,8.32791 2.1159,12.50543 2.143,4.1504 6.3748,4.1504 4.2589,0 6.3748,-4.1504 2.143,-4.17752 2.143,-12.50543 0,-8.35504 -2.143,-12.50544 -2.1159,-4.17752 -6.3748,-4.17752 z m 0,-4.34028 q 6.8088,0 10.3896,5.39822 3.6078,5.3711 3.6078,15.62502 0,10.22678 -3.6078,15.62501 -3.5808,5.3711 -10.3896,5.3711 -6.8088,0 -10.4167,-5.3711 -3.5807,-5.39823 -3.5807,-15.62501 0,-10.25392 3.5807,-15.62502 3.6079,-5.39822 10.4167,-5.39822 z"
           style="font-family:sans-serif;-inkscape-font-specification:sans-serif;stroke-width:5"
           id="path8604" /><path
           d="m 1244.5158,531.54694 q -4.2318,0 -6.3748,4.17752 -2.1159,4.1504 -2.1159,12.50544 0,8.32791 2.1159,12.50543 2.143,4.1504 6.3748,4.1504 4.2589,0 6.3748,-4.1504 2.143,-4.17752 2.143,-12.50543 0,-8.35504 -2.143,-12.50544 -2.1159,-4.17752 -6.3748,-4.17752 z m 0,-4.34028 q 6.8088,0 10.3896,5.39822 3.6078,5.3711 3.6078,15.62502 0,10.22678 -3.6078,15.62501 -3.5808,5.3711 -10.3896,5.3711 -6.8088,0 -10.4167,-5.3711 -3.5807,-5.39823 -3.5807,-15.62501 0,-10.25392 3.5807,-15.62502 3.6079,-5.39822 10.4167,-5.39822 z"
           style="font-family:sans-serif;-inkscape-font-specification:sans-serif;stroke-width:5"
           id="path8606" /><path
           d="m 1279.8619,531.54694 q -4.2317,0 -6.3747,4.17752 -2.1159,4.1504 -2.1159,12.50544 0,8.32791 2.1159,12.50543 2.143,4.1504 6.3747,4.1504 4.2589,0 6.3748,-4.1504 2.143,-4.17752 2.143,-12.50543 0,-8.35504 -2.143,-12.50544 -2.1159,-4.17752 -6.3748,-4.17752 z m 0,-4.34028 q 6.8089,0 10.3896,5.39822 3.6078,5.3711 3.6078,15.62502 0,10.22678 -3.6078,15.62501 -3.5807,5.3711 -10.3896,5.3711 -6.8088,0 -10.4166,-5.3711 -3.5808,-5.39823 -3.5808,-15.62501 0,-10.25392 3.5808,-15.62502 3.6078,-5.39822 10.4166,-5.39822 z"
           style="font-family:sans-serif;-inkscape-font-specification:sans-serif;stroke-width:5"
           id="path8608" /><path
           d="m 1315.2081,531.54694 q -4.2317,0 -6.3748,4.17752 -2.1158,4.1504 -2.1158,12.50544 0,8.32791 2.1158,12.50543 2.1431,4.1504 6.3748,4.1504 4.2589,0 6.3748,-4.1504 2.143,-4.17752 2.143,-12.50543 0,-8.35504 -2.143,-12.50544 -2.1159,-4.17752 -6.3748,-4.17752 z m 0,-4.34028 q 6.8088,0 10.3896,5.39822 3.6078,5.3711 3.6078,15.62502 0,10.22678 -3.6078,15.62501 -3.5808,5.3711 -10.3896,5.3711 -6.8088,0 -10.4166,-5.3711 -3.5808,-5.39823 -3.5808,-15.62501 0,-10.25392 3.5808,-15.62502 3.6078,-5.39822 10.4166,-5.39822 z"
           style="font-family:sans-serif;-inkscape-font-specification:sans-serif;stroke-width:5"
           id="path8610" /><path
           d="m 1350.5543,531.54694 q -4.2318,0 -6.3748,4.17752 -2.1159,4.1504 -2.1159,12.50544 0,8.32791 2.1159,12.50543 2.143,4.1504 6.3748,4.1504 4.2589,0 6.3748,-4.1504 2.143,-4.17752 2.143,-12.50543 0,-8.35504 -2.143,-12.50544 -2.1159,-4.17752 -6.3748,-4.17752 z m 0,-4.34028 q 6.8088,0 10.3895,5.39822 3.6079,5.3711 3.6079,15.62502 0,10.22678 -3.6079,15.62501 -3.5807,5.3711 -10.3895,5.3711 -6.8089,0 -10.4167,-5.3711 -3.5807,-5.39823 -3.5807,-15.62501 0,-10.25392 3.5807,-15.62502 3.6078,-5.39822 10.4167,-5.39822 z"
           style="font-family:sans-serif;-inkscape-font-specification:sans-serif;stroke-width:5"
           id="path8612" /><path
           d="m 1385.9005,531.54694 q -4.2318,0 -6.3748,4.17752 -2.1159,4.1504 -2.1159,12.50544 0,8.32791 2.1159,12.50543 2.143,4.1504 6.3748,4.1504 4.2589,0 6.3747,-4.1504 2.1431,-4.17752 2.1431,-12.50543 0,-8.35504 -2.1431,-12.50544 -2.1158,-4.17752 -6.3747,-4.17752 z m 0,-4.34028 q 6.8088,0 10.3895,5.39822 3.6079,5.3711 3.6079,15.62502 0,10.22678 -3.6079,15.62501 -3.5807,5.3711 -10.3895,5.3711 -6.8089,0 -10.4167,-5.3711 -3.5808,-5.39823 -3.5808,-15.62501 0,-10.25392 3.5808,-15.62502 3.6078,-5.39822 10.4167,-5.39822 z"
           style="font-family:sans-serif;-inkscape-font-specification:sans-serif;stroke-width:5"
           id="path8614" /><path
           d="m 1421.2466,531.54694 q -4.2317,0 -6.3747,4.17752 -2.1159,4.1504 -2.1159,12.50544 0,8.32791 2.1159,12.50543 2.143,4.1504 6.3747,4.1504 4.2589,0 6.3748,-4.1504 2.143,-4.17752 2.143,-12.50543 0,-8.35504 -2.143,-12.50544 -2.1159,-4.17752 -6.3748,-4.17752 z m 0,-4.34028 q 6.8089,0 10.3896,5.39822 3.6079,5.3711 3.6079,15.62502 0,10.22678 -3.6079,15.62501 -3.5807,5.3711 -10.3896,5.3711 -6.8088,0 -10.4166,-5.3711 -3.5808,-5.39823 -3.5808,-15.62501 0,-10.25392 3.5808,-15.62502 3.6078,-5.39822 10.4166,-5.39822 z"
           style="font-family:sans-serif;-inkscape-font-specification:sans-serif;stroke-width:5"
           id="path8616" /><path
           d="m 1456.5928,531.54694 q -4.2317,0 -6.3747,4.17752 -2.1159,4.1504 -2.1159,12.50544 0,8.32791 2.1159,12.50543 2.143,4.1504 6.3747,4.1504 4.2589,0 6.3748,-4.1504 2.143,-4.17752 2.143,-12.50543 0,-8.35504 -2.143,-12.50544 -2.1159,-4.17752 -6.3748,-4.17752 z m 0,-4.34028 q 6.8089,0 10.3896,5.39822 3.6078,5.3711 3.6078,15.62502 0,10.22678 -3.6078,15.62501 -3.5807,5.3711 -10.3896,5.3711 -6.8088,0 -10.4166,-5.3711 -3.5808,-5.39823 -3.5808,-15.62501 0,-10.25392 3.5808,-15.62502 3.6078,-5.39822 10.4166,-5.39822 z"
           style="font-family:sans-serif;-inkscape-font-specification:sans-serif;stroke-width:5"
           id="path8618" /><path
           d="m 1491.9389,531.54694 q -4.2318,0 -6.3748,4.17752 -2.1159,4.1504 -2.1159,12.50544 0,8.32791 2.1159,12.50543 2.143,4.1504 6.3748,4.1504 4.2589,0 6.3748,-4.1504 2.143,-4.17752 2.143,-12.50543 0,-8.35504 -2.143,-12.50544 -2.1159,-4.17752 -6.3748,-4.17752 z m 0,-4.34028 q 6.8088,0 10.3896,5.39822 3.6078,5.3711 3.6078,15.62502 0,10.22678 -3.6078,15.62501 -3.5808,5.3711 -10.3896,5.3711 -6.8088,0 -10.4167,-5.3711 -3.5807,-5.39823 -3.5807,-15.62501 0,-10.25392 3.5807,-15.62502 3.6079,-5.39822 10.4167,-5.39822 z"
           style="font-family:sans-serif;-inkscape-font-specification:sans-serif;stroke-width:5"
           id="path8620" /><path
           d="m 1527.2851,531.54694 q -4.2318,0 -6.3748,4.17752 -2.1159,4.1504 -2.1159,12.50544 0,8.32791 2.1159,12.50543 2.143,4.1504 6.3748,4.1504 4.2589,0 6.3748,-4.1504 2.143,-4.17752 2.143,-12.50543 0,-8.35504 -2.143,-12.50544 -2.1159,-4.17752 -6.3748,-4.17752 z m 0,-4.34028 q 6.8088,0 10.3895,5.39822 3.6079,5.3711 3.6079,15.62502 0,10.22678 -3.6079,15.62501 -3.5807,5.3711 -10.3895,5.3711 -6.8088,0 -10.4167,-5.3711 -3.5807,-5.39823 -3.5807,-15.62501 0,-10.25392 3.5807,-15.62502 3.6079,-5.39822 10.4167,-5.39822 z"
           style="font-family:sans-serif;-inkscape-font-specification:sans-serif;stroke-width:5"
           id="path8622" /><path
           d="m 1562.6313,531.54694 q -4.2318,0 -6.3748,4.17752 -2.1159,4.1504 -2.1159,12.50544 0,8.32791 2.1159,12.50543 2.143,4.1504 6.3748,4.1504 4.2589,0 6.3748,-4.1504 2.143,-4.17752 2.143,-12.50543 0,-8.35504 -2.143,-12.50544 -2.1159,-4.17752 -6.3748,-4.17752 z m 0,-4.34028 q 6.8088,0 10.3895,5.39822 3.6079,5.3711 3.6079,15.62502 0,10.22678 -3.6079,15.62501 -3.5807,5.3711 -10.3895,5.3711 -6.8088,0 -10.4167,-5.3711 -3.5807,-5.39823 -3.5807,-15.62501 0,-10.25392 3.5807,-15.62502 3.6079,-5.39822 10.4167,-5.39822 z"
           style="font-family:sans-serif;-inkscape-font-specification:sans-serif;stroke-width:5"
           id="path8624" /><path
           d="m 1597.9775,531.54694 q -4.2318,0 -6.3748,4.17752 -2.1159,4.1504 -2.1159,12.50544 0,8.32791 2.1159,12.50543 2.143,4.1504 6.3748,4.1504 4.2589,0 6.3748,-4.1504 2.143,-4.17752 2.143,-12.50543 0,-8.35504 -2.143,-12.50544 -2.1159,-4.17752 -6.3748,-4.17752 z m 0,-4.34028 q 6.8088,0 10.3895,5.39822 3.6079,5.3711 3.6079,15.62502 0,10.22678 -3.6079,15.62501 -3.5807,5.3711 -10.3895,5.3711 -6.8088,0 -10.4167,-5.3711 -3.5807,-5.39823 -3.5807,-15.62501 0,-10.25392 3.5807,-15.62502 3.6079,-5.39822 10.4167,-5.39822 z"
           style="font-family:sans-serif;-inkscape-font-specification:sans-serif;stroke-width:5"
           id="path8626" /><path
           d="m 1633.3236,531.54694 q -4.2318,0 -6.3748,4.17752 -2.1159,4.1504 -2.1159,12.50544 0,8.32791 2.1159,12.50543 2.143,4.1504 6.3748,4.1504 4.2589,0 6.3747,-4.1504 2.1431,-4.17752 2.1431,-12.50543 0,-8.35504 -2.1431,-12.50544 -2.1158,-4.17752 -6.3747,-4.17752 z m 0,-4.34028 q 6.8088,0 10.3895,5.39822 3.6079,5.3711 3.6079,15.62502 0,10.22678 -3.6079,15.62501 -3.5807,5.3711 -10.3895,5.3711 -6.8089,0 -10.4167,-5.3711 -3.5808,-5.39823 -3.5808,-15.62501 0,-10.25392 3.5808,-15.62502 3.6078,-5.39822 10.4167,-5.39822 z"
           style="font-family:sans-serif;-inkscape-font-specification:sans-serif;stroke-width:5"
           id="path8628" /><path
           d="m 1668.6697,531.54694 q -4.2317,0 -6.3747,4.17752 -2.1159,4.1504 -2.1159,12.50544 0,8.32791 2.1159,12.50543 2.143,4.1504 6.3747,4.1504 4.2589,0 6.3748,-4.1504 2.143,-4.17752 2.143,-12.50543 0,-8.35504 -2.143,-12.50544 -2.1159,-4.17752 -6.3748,-4.17752 z m 0,-4.34028 q 6.8089,0 10.3896,5.39822 3.6078,5.3711 3.6078,15.62502 0,10.22678 -3.6078,15.62501 -3.5807,5.3711 -10.3896,5.3711 -6.8088,0 -10.4166,-5.3711 -3.5808,-5.39823 -3.5808,-15.62501 0,-10.25392 3.5808,-15.62502 3.6078,-5.39822 10.4166,-5.39822 z"
           style="font-family:sans-serif;-inkscape-font-specification:sans-serif;stroke-width:5"
           id="path8630" /><path
           d="m 1704.0159,531.54694 q -4.2317,0 -6.3748,4.17752 -2.1158,4.1504 -2.1158,12.50544 0,8.32791 2.1158,12.50543 2.1431,4.1504 6.3748,4.1504 4.2589,0 6.3748,-4.1504 2.143,-4.17752 2.143,-12.50543 0,-8.35504 -2.143,-12.50544 -2.1159,-4.17752 -6.3748,-4.17752 z m 0,-4.34028 q 6.8088,0 10.3896,5.39822 3.6078,5.3711 3.6078,15.62502 0,10.22678 -3.6078,15.62501 -3.5808,5.3711 -10.3896,5.3711 -6.8088,0 -10.4166,-5.3711 -3.5808,-5.39823 -3.5808,-15.62501 0,-10.25392 3.5808,-15.62502 3.6078,-5.39822 10.4166,-5.39822 z"
           style="font-family:sans-serif;-inkscape-font-specification:sans-serif;stroke-width:5"
           id="path8632" /><path
           d="m 1739.3621,531.54694 q -4.2317,0 -6.3748,4.17752 -2.1158,4.1504 -2.1158,12.50544 0,8.32791 2.1158,12.50543 2.1431,4.1504 6.3748,4.1504 4.2589,0 6.3748,-4.1504 2.143,-4.17752 2.143,-12.50543 0,-8.35504 -2.143,-12.50544 -2.1159,-4.17752 -6.3748,-4.17752 z m 0,-4.34028 q 6.8088,0 10.3896,5.39822 3.6078,5.3711 3.6078,15.62502 0,10.22678 -3.6078,15.62501 -3.5808,5.3711 -10.3896,5.3711 -6.8088,0 -10.4166,-5.3711 -3.5808,-5.39823 -3.5808,-15.62501 0,-10.25392 3.5808,-15.62502 3.6078,-5.39822 10.4166,-5.39822 z"
           style="font-family:sans-serif;-inkscape-font-specification:sans-serif;stroke-width:5"
           id="path8634" /></g></g></g></svg>
